<svg width="488" height="172" viewBox="0 0 488 172" fill="none" xmlns="http://www.w3.org/2000/svg">
<mask id="mask0_1_2" style="mask-type:luminance" maskUnits="userSpaceOnUse" x="0" y="0" width="488" height="172">
<path d="M475.8 0H12.2C5.46213 0 0 5.38511 0 12.028V159.972C0 166.615 5.46213 172 12.2 172H475.8C482.538 172 488 166.615 488 159.972V12.028C488 5.38511 482.538 0 475.8 0Z" fill="white"/>
</mask>
<g mask="url(#mask0_1_2)">
<path d="M475.8 0H12.2C5.46213 0 0 5.38511 0 12.028V159.972C0 166.615 5.46213 172 12.2 172H475.8C482.538 172 488 166.615 488 159.972V12.028C488 5.38511 482.538 0 475.8 0Z" fill="url(#paint0_linear_1_2)"/>
<path d="M278.891 198.845C280.614 176.741 300.213 160.199 322.669 161.892C327.405 162.245 332.041 163.411 336.37 165.337C336.816 164.745 337.263 164.154 337.728 163.579C337.74 163.395 337.742 163.214 337.755 163.029C339.477 140.925 359.076 124.382 381.532 126.075C388.494 126.592 395.203 128.868 401.013 132.685C406.244 117.687 421.254 107.452 438.067 108.72C448.742 109.526 457.982 114.808 464.032 122.551C471.6 99.8316 494.152 84.2493 519.456 86.1582C540.2 87.7236 557.295 100.636 564.968 118.237C570.922 115.776 577.385 114.749 583.822 115.241C606.278 116.935 623.084 136.226 621.364 158.328C621.328 158.87 621.267 159.405 621.2 159.94C625.606 159.192 630.089 158.984 634.546 159.321C664.278 161.565 686.537 187.107 684.261 216.372C681.98 245.637 656.031 267.545 626.293 265.302C625.665 265.254 625.049 265.181 624.433 265.114C617.411 275.089 605.36 281.24 592.181 280.248C582.711 279.534 574.387 275.254 568.448 268.857C551.314 282.953 528.804 290.75 504.779 288.937C488.493 287.709 473.588 282.208 461.069 273.665C453.041 284.706 439.518 291.47 424.761 290.356C410.896 289.311 399.191 281.553 392.664 270.571C385.042 276.162 375.419 279.18 365.197 278.408C344.776 276.867 329.03 260.775 327.635 241.249C323.951 241.982 320.182 242.212 316.434 241.931C293.98 240.239 277.172 220.949 278.891 198.845Z" fill="url(#paint1_linear_1_2)"/>
<path opacity="0.2" d="M35.075 27.244L36.4719 24.6573L36.4316 27.5585L38.9461 25.8788L37.4772 28.4299L40.5333 28.0426L37.9725 29.6592L40.87 30.6521L37.8041 30.9642L39.8794 33.11L37.0105 32.0455L37.7877 34.8535L35.7734 32.6565L35.075 35.4825L34.3765 32.6565L32.3623 34.8535L33.1395 32.0455L30.2706 33.11L32.3459 30.9642L29.28 30.6521L32.1775 29.6592L29.6167 28.0426L32.6728 28.4299L31.2039 25.8788L33.7184 27.5585L33.6781 24.6573L35.075 27.244Z" fill="white"/>
<path d="M221.43 22.354L222.46 20.4476L222.43 22.5855L224.282 21.3478L223.2 23.2278L225.452 22.9422L223.565 24.1329L225.7 24.8648L223.441 25.0946L224.97 26.6762L222.856 25.8914L223.429 27.9602L221.945 26.3419L221.43 28.4239L220.915 26.3419L219.431 27.9602L220.004 25.8914L217.89 26.6762L219.419 25.0946L217.16 24.8648L219.295 24.1329L217.408 22.9422L219.66 23.2272L218.578 21.3478L220.431 22.5855L220.4 20.4476L221.43 22.354Z" fill="#FF820A"/>
<path opacity="0.2" d="M368.745 141.51L370.142 138.923L370.102 141.824L372.616 140.145L371.147 142.696L374.203 142.308L371.643 143.925L374.54 144.918L371.474 145.23L373.549 147.376L370.681 146.311L371.458 149.119L369.443 146.922L368.745 149.748L368.047 146.922L366.032 149.119L366.809 146.311L363.941 147.376L366.016 145.23L362.95 144.918L365.848 143.925L363.287 142.308L366.343 142.696L364.874 140.145L367.389 141.824L367.348 138.923L368.745 141.51Z" fill="white"/>
<path d="M194.895 136.097L196.292 133.51L196.252 136.412L198.766 134.732L197.297 137.283L200.353 136.896L197.792 138.512L200.69 139.505L197.624 139.817L199.699 141.963L196.831 140.899L197.608 143.707L195.593 141.51L194.895 144.336L194.197 141.51L192.182 143.707L192.959 140.899L190.091 141.963L192.166 139.817L189.1 139.505L191.997 138.512L189.437 136.896L192.493 137.283L191.024 134.732L193.539 136.412L193.498 133.51L194.895 136.097Z" fill="#FF820A"/>
<path d="M91.0523 134.817C85.8728 136.092 80.9058 138.093 76.3031 140.759C61.1751 117.15 31.892 104.621 2.89262 111.756C-30.575 119.989 -51.9006 151.515 -47.7618 184.413C-51.9681 184.196 -56.1838 184.598 -60.2698 185.606C-82.9838 191.194 -96.8039 213.866 -91.1395 236.247C-85.475 258.628 -62.4701 272.24 -39.7561 266.652C-34.8694 265.454 -30.2388 263.406 -26.0824 260.604C-14.6235 272.017 2.47172 277.357 19.4291 273.185C30.3176 270.505 39.3822 264.332 45.7201 256.187C55.1965 260.442 66.1386 261.693 77.0296 259.013C87.4807 256.442 96.2586 250.655 102.551 242.994C107.76 243.176 112.969 242.638 118.026 241.394C147.895 234.046 166.071 204.23 158.621 174.8C151.172 145.369 120.921 127.469 91.0523 134.817Z" fill="url(#paint2_linear_1_2)"/>
</g>
<defs>
<linearGradient id="paint0_linear_1_2" x1="-39.5298" y1="-26.8386" x2="497.838" y2="79.706" gradientUnits="userSpaceOnUse">
<stop stop-color="#4658D9"/>
<stop offset="1" stop-color="#2B1B9C"/>
</linearGradient>
<linearGradient id="paint1_linear_1_2" x1="315.675" y1="175.007" x2="603.652" y2="159.486" gradientUnits="userSpaceOnUse">
<stop stop-color="#332CAD"/>
<stop offset="1" stop-color="#332DAD"/>
</linearGradient>
<linearGradient id="paint2_linear_1_2" x1="162.253" y1="153.129" x2="-6.14696" y2="163.984" gradientUnits="userSpaceOnUse">
<stop stop-color="#3E45C5"/>
<stop offset="1" stop-color="#3E46C7"/>
</linearGradient>
</defs>
</svg>
