<svg width="343" height="286" viewBox="0 0 343 286" fill="none" xmlns="http://www.w3.org/2000/svg">
<g clip-path="url(#clip0_1_39)">
<mask id="mask0_1_39" style="mask-type:luminance" maskUnits="userSpaceOnUse" x="0" y="0" width="343" height="286">
<path d="M323 0H20C8.9543 0 0 8.9543 0 20V266C0 277.046 8.9543 286 20 286H323C334.046 286 343 277.046 343 266V20C343 8.9543 334.046 0 323 0Z" fill="white"/>
</mask>
<g mask="url(#mask0_1_39)">
<path d="M323 0H20C8.9543 0 0 8.9543 0 20V266C0 277.046 8.9543 286 20 286H323C334.046 286 343 277.046 343 266V20C343 8.9543 334.046 0 323 0Z" fill="url(#paint0_linear_1_39)"/>
<path d="M0.197998 354.638C3.023 317.884 35.153 290.377 71.966 293.192C79.7291 293.779 87.3299 295.718 94.426 298.92C95.156 297.936 95.89 296.954 96.652 295.998C96.672 295.691 96.675 295.39 96.697 295.083C99.52 258.329 131.65 230.822 168.462 233.637C179.875 234.496 190.874 238.281 200.399 244.627C208.973 219.689 233.581 202.67 261.142 204.778C278.643 206.118 293.79 214.901 303.709 227.777C316.114 189.999 353.085 164.089 394.567 167.263C428.574 169.866 456.598 191.336 469.177 220.603C478.938 216.511 489.534 214.803 500.086 215.622C536.898 218.438 564.455 250.515 561.635 287.267C561.565 288.167 561.466 289.057 561.362 289.947C568.584 288.703 575.932 288.357 583.239 288.918C631.981 292.648 668.471 335.12 664.737 383.781C660.998 432.443 618.456 468.871 569.709 465.141C568.684 465.062 567.671 464.94 566.656 464.829C555.152 481.415 535.393 491.644 513.789 489.993C498.264 488.806 484.618 481.69 474.882 471.053C446.793 494.492 409.892 507.457 370.507 504.441C343.809 502.399 319.373 493.253 298.851 479.047C285.69 497.406 263.522 508.653 239.33 506.802C216.6 505.064 197.412 492.163 186.711 473.903C174.216 483.2 158.441 488.218 141.683 486.935C108.206 484.372 82.393 457.614 80.107 425.146C74.0672 426.366 67.888 426.748 61.744 426.28C24.934 423.467 -2.62 391.392 0.197998 354.638Z" fill="url(#paint1_linear_1_39)"/>
<path d="M74.266 222.173C65.7748 224.292 57.6318 227.619 50.086 232.052C25.286 192.796 -22.718 171.963 -70.258 183.826C-125.123 197.517 -160.083 249.938 -153.298 304.641C-160.194 304.279 -167.105 304.947 -173.803 306.624C-211.039 315.915 -233.695 353.614 -224.409 390.829C-215.123 428.044 -177.41 450.678 -140.174 441.386C-132.163 439.395 -124.572 435.99 -117.759 431.33C-98.973 450.308 -70.949 459.186 -43.149 452.249C-25.299 447.794 -10.439 437.529 -0.048996 423.986C15.486 431.06 33.424 433.141 51.278 428.685C68.411 424.41 82.801 414.787 93.117 402.048C101.656 402.351 110.195 401.455 118.486 399.388C167.451 387.17 197.247 337.591 185.035 288.655C172.823 239.718 123.231 209.955 74.266 222.173Z" fill="url(#paint2_linear_1_39)"/>
<path opacity="0.2" d="M-0.5 33.301L1.79 29L1.724 33.824L5.846 31.031L3.438 35.273L8.448 34.629L4.25 37.317L9 38.968L3.974 39.487L7.376 43.055L2.673 41.285L3.947 45.954L0.645 42.301L-0.5 47L-1.645 42.301L-4.947 45.954L-3.673 41.285L-8.375 43.055L-4.974 39.487L-10 38.968L-5.25 37.317L-9.448 34.629L-4.438 35.273L-6.846 31.031L-2.723 33.824L-2.79 29L-0.5 33.301Z" fill="white"/>
<path d="M285 17.17L286.688 14L286.639 17.555L289.676 15.497L287.902 18.622L291.593 18.148L288.5 20.128L292 21.345L288.297 21.727L290.803 24.357L287.338 23.052L288.277 26.492L285.844 23.801L285 27.263L284.156 23.801L281.723 26.492L282.662 23.052L279.197 24.357L281.704 21.727L278 21.345L281.5 20.128L278.407 18.148L282.099 18.622L280.324 15.497L283.362 17.555L283.312 14L285 17.17Z" fill="#FF820A"/>
<path opacity="0.2" d="M306.5 245.301L308.79 241L308.724 245.824L312.846 243.031L310.438 247.273L315.448 246.629L311.25 249.317L316 250.968L310.974 251.487L314.376 255.055L309.673 253.285L310.947 257.954L307.645 254.301L306.5 259L305.355 254.301L302.053 257.954L303.327 253.285L298.625 255.055L302.026 251.487L297 250.968L301.75 249.317L297.552 246.629L302.562 247.273L300.154 243.031L304.277 245.824L304.21 241L306.5 245.301Z" fill="white"/>
<path d="M41.5 246.301L43.79 242L43.724 246.824L47.846 244.031L45.438 248.273L50.448 247.629L46.25 250.317L51 251.968L45.974 252.487L49.376 256.055L44.673 254.285L45.947 258.954L42.645 255.301L41.5 260L40.355 255.301L37.053 258.954L38.327 254.285L33.624 256.055L37.026 252.487L32 251.968L36.75 250.317L32.552 247.629L37.562 248.273L35.154 244.031L39.276 246.824L39.21 242L41.5 246.301Z" fill="#FF820A"/>
</g>
</g>
<defs>
<linearGradient id="paint0_linear_1_39" x1="-27.784" y1="-44.627" x2="362.025" y2="-11.957" gradientUnits="userSpaceOnUse">
<stop stop-color="#4658D9"/>
<stop offset="1" stop-color="#2B1B9C"/>
</linearGradient>
<linearGradient id="paint1_linear_1_39" x1="60.5" y1="315" x2="532.631" y2="289.913" gradientUnits="userSpaceOnUse">
<stop stop-color="#332CAD"/>
<stop offset="1" stop-color="#332DAD"/>
</linearGradient>
<linearGradient id="paint2_linear_1_39" x1="190.988" y1="252.622" x2="-85.109" y2="270.167" gradientUnits="userSpaceOnUse">
<stop stop-color="#3E45C5"/>
<stop offset="1" stop-color="#3E46C7"/>
</linearGradient>
<clipPath id="clip0_1_39">
<rect width="343" height="286" fill="white"/>
</clipPath>
</defs>
</svg>
